<?xml version="1.0" encoding="utf-8"?>
<!-- Generator: Adobe Illustrator 20.0.0, SVG Export Plug-In . SVG Version: 6.00 Build 0)  -->
<svg version="1.1" id="Layer_1" xmlns="http://www.w3.org/2000/svg" xmlns:xlink="http://www.w3.org/1999/xlink" x="0px" y="0px"
	 viewBox="0 0 418.3 62.2" style="enable-background:new 0 0 418.3 62.2;" xml:space="preserve">
<style type="text/css">
	.st0{clip-path:url(#SVGID_2_);fill:#B2252B;}
	.st1{clip-path:url(#SVGID_2_);}
	.st2{fill:#6C0E0F;}
</style>
<g>
	<defs>
		<rect id="SVGID_1_" x="-0.9" width="420.2" height="62.2"/>
	</defs>
	<clipPath id="SVGID_2_">
		<use xlink:href="#SVGID_1_"  style="overflow:visible;"/>
	</clipPath>
	<rect x="-59.1" y="-17" class="st0" width="518.8" height="86.4"/>
	<g class="st1">
		<g>
			<g>
				<g>
					<polygon class="st2" points="25,33.8 44.7,45.2 45.3,47.2 23,34.3 					"/>
					<polygon class="st2" points="4.2,49.8 -8.2,42.7 -6.2,42.2 3.6,47.9 					"/>
					<polygon class="st2" points="43.2,39.4 30.8,32.2 32.8,31.7 42.7,37.4 					"/>
					<polygon class="st2" points="44.2,43.3 26.9,33.3 28.9,32.8 43.7,41.3 					"/>
					<polygon class="st2" points="59.6,22.4 60.1,24.4 35.4,10.1 29.6,-11.3 32.1,-9.9 34,-10.4 29.1,-13.3 28.6,-15.2 36,-10.9 
						37.9,-11.5 28,-17.2 27.5,-19.1 39.9,-12 41.8,-12.5 27,-21.1 26.5,-23 43.8,-13 45.7,-13.6 25.9,-25 25.4,-26.9 47.7,-14.1 
						49.6,-14.6 74.4,-0.3 72.4,0.2 50.2,-12.7 50.7,-10.7 70.5,0.7 68.5,1.2 51.2,-8.8 51.7,-6.8 66.6,1.8 64.6,2.3 52.2,-4.9 
						52.8,-2.9 62.7,2.8 60.7,3.3 53.3,-1 53.8,1 58.8,3.9 56.8,4.4 54.3,2.9 54.9,4.9 52.9,5.4 55.4,6.8 55.9,8.8 51,5.9 49,6.5 
						56.4,10.7 56.9,12.7 47.1,7 45.1,7.5 57.5,14.6 58,16.6 43.2,8 41.2,8.6 58.5,18.5 59,20.5 39.3,9.1 37.3,9.6 					"/>
					<polygon class="st2" points="-14,44.3 5.7,55.7 6.3,57.6 -16,44.8 					"/>
					<polygon class="st2" points="3.1,45.9 -4.3,41.6 -2.3,41.1 2.6,44 					"/>
					<polygon class="st2" points="60.1,24.4 84.8,38.7 82.9,39.2 60.6,26.3 61.1,28.3 80.9,39.7 79,40.2 61.6,30.2 62.2,32.2 
						77,40.8 75.1,41.3 62.7,34.1 63.2,36.1 73.1,41.8 71.2,42.3 63.7,38 64.3,40 69.2,42.9 67.3,43.4 64.8,41.9 65.3,43.9 
						45.8,49.1 40.1,27.7 42.5,29.1 44.5,28.6 39.5,25.7 39,23.8 46.4,28.1 48.4,27.5 38.5,21.8 38,19.9 50.3,27 52.3,26.5 
						37.4,17.9 36.9,16 54.2,26 56.2,25.4 36.4,14 35.9,12.1 58.1,24.9 					"/>
					<polygon class="st2" points="35.3,10.1 33.4,10.6 11.1,-2.2 11.7,-0.2 31.4,11.2 29.5,11.7 12.2,1.7 12.7,3.6 27.5,12.2 
						25.6,12.7 13.2,5.6 13.8,7.5 23.6,13.3 21.7,13.8 14.3,9.5 14.8,11.4 19.7,14.3 17.8,14.8 15.3,13.4 15.8,15.4 13.9,15.9 
						16.4,17.3 16.9,19.3 11.9,16.4 10,16.9 17.4,21.2 17.9,23.1 8,17.4 6.1,18 18.5,25.1 19,27 4.1,18.5 2.2,19 19.5,29 20,30.9 
						0.2,19.5 -1.7,20.1 20.5,32.9 21.1,34.9 -3.7,20.6 -9.4,-0.9 -6.9,0.6 -5,0 -9.9,-2.8 -10.5,-4.8 -3,-0.5 -1.1,-1 -11,-6.7 
						-11.5,-8.7 0.9,-1.5 2.8,-2.1 -12,-10.6 -12.5,-12.6 4.8,-2.6 6.7,-3.1 -13.1,-14.5 -13.6,-16.5 8.7,-3.6 10.6,-4.1 					"/>
					<polygon class="st2" points="2.1,42 -0.4,40.6 1.6,40.1 					"/>
					<polygon class="st2" points="42.1,35.5 34.7,31.2 36.7,30.7 41.6,33.5 					"/>
					<polygon class="st2" points="81.1,25 73.7,20.7 75.7,20.2 80.6,23.1 					"/>
					<polygon class="st2" points="-19.9,45.8 -17.9,45.3 6.8,59.6 4.8,60.1 -17.4,47.3 -16.9,49.2 2.9,60.6 0.9,61.1 -16.4,51.2 
						-15.8,53.1 -1,61.7 -3,62.2 -15.3,55.1 -14.8,57 -4.9,62.7 -6.9,63.2 -14.3,59 -13.8,60.9 -8.8,63.8 -10.8,64.3 -13.2,62.9 
						-12.7,64.8 -32.2,70 -38,48.6 -35.5,50 -33.5,49.5 -38.5,46.6 -39,44.7 -31.6,49 -29.6,48.4 -39.5,42.7 -40.1,40.8 -27.7,47.9 
						-25.7,47.4 -40.6,38.8 -41.1,36.9 -23.8,46.9 -21.8,46.3 -41.6,34.9 -42.1,33 					"/>
					<polygon class="st2" points="80.1,21.1 77.6,19.7 79.6,19.2 					"/>
					<polygon class="st2" points="19.1,35.4 21.1,34.9 45.8,49.1 43.8,49.6 21.6,36.8 22.1,38.8 41.9,50.2 39.9,50.7 22.6,40.7 
						23.2,42.7 38,51.2 36,51.7 23.7,44.6 24.2,46.5 34.1,52.3 32.1,52.8 24.7,48.5 25.3,50.4 30.2,53.3 28.2,53.8 25.8,52.4 
						26.3,54.4 6.8,59.6 1,38.1 3.5,39.6 5.5,39 0.5,36.2 0,34.2 7.4,38.5 9.4,38 -0.5,32.3 -1,30.3 11.3,37.5 13.3,36.9 -1.6,28.4 
						-2.1,26.4 15.2,36.4 17.2,35.9 -2.6,24.5 -3.1,22.5 					"/>
					<polygon class="st2" points="64,23.4 83.8,34.8 84.3,36.7 62,23.9 					"/>
					<polygon class="st2" points="5.2,53.7 -12.1,43.7 -10.1,43.2 4.7,51.8 					"/>
					<polygon class="st2" points="14.5,-5.2 34.3,6.2 34.8,8.2 12.6,-4.7 					"/>
					<polygon class="st2" points="41.1,31.6 38.6,30.1 40.6,29.6 					"/>
					<polygon class="st2" points="83.2,32.8 65.9,22.8 67.9,22.3 82.7,30.9 					"/>
					<polygon class="st2" points="33.8,4.3 16.5,-5.7 18.4,-6.2 33.3,2.3 					"/>
					<polygon class="st2" points="32.7,0.4 20.4,-6.8 22.3,-7.3 32.2,-1.6 					"/>
					<polygon class="st2" points="82.2,28.9 69.8,21.8 71.8,21.3 81.7,27 					"/>
				</g>
				<g>
					<polygon class="st2" points="97.1,14.5 99.1,13.9 123.8,28.2 121.9,28.7 99.6,15.9 100.1,17.8 119.9,29.3 118,29.8 100.7,19.8 
						101.2,21.7 116,30.3 114.1,30.8 101.7,23.7 102.2,25.6 112.1,31.4 110.2,31.9 102.7,27.6 103.3,29.5 108.2,32.4 106.3,32.9 
						103.8,31.5 104.3,33.4 84.8,38.7 79.1,17.2 81.5,18.6 83.5,18.1 78.5,15.3 78,13.3 85.4,17.6 87.4,17.1 77.5,11.4 77,9.4 
						89.3,16.6 91.3,16 76.5,7.5 75.9,5.5 93.2,15.5 95.2,15 75.4,3.6 74.9,1.6 					"/>
					<polygon class="st2" points="181,-8 200.8,3.4 201.3,5.4 179.1,-7.5 					"/>
					<polygon class="st2" points="160.2,8 147.9,0.9 149.8,0.4 159.7,6.1 					"/>
					<polygon class="st2" points="200.3,1.5 183,-8.5 184.9,-9 199.7,-0.5 					"/>
					<polygon class="st2" points="142,2.4 161.8,13.9 162.3,15.8 140.1,3 					"/>
					<polygon class="st2" points="159.2,4.1 151.8,-0.2 153.7,-0.7 158.6,2.2 					"/>
					<polygon class="st2" points="216.1,-17.4 240.8,-3.1 238.9,-2.6 216.6,-15.5 217.2,-13.5 236.9,-2.1 235,-1.6 217.7,-11.6 
						218.2,-9.6 233,-1 231.1,-0.5 218.7,-7.7 219.3,-5.7 229.1,0 227.2,0.5 219.8,-3.8 220.3,-1.8 225.2,1 223.3,1.6 220.8,0.1 
						221.3,2.1 201.8,7.3 196.1,-14.1 198.6,-12.7 200.5,-13.2 195.6,-16.1 195.1,-18 202.5,-13.8 204.4,-14.3 194.5,-20 194,-21.9 
						206.4,-14.8 208.3,-15.3 193.5,-23.9 193,-25.8 210.3,-15.8 212.2,-16.4 192.4,-27.8 191.9,-29.7 214.2,-16.9 					"/>
					<polygon class="st2" points="158.1,0.2 155.7,-1.2 157.6,-1.7 					"/>
					<polygon class="st2" points="113.4,-10.8 111.4,-10.3 89.2,-23.1 89.7,-21.2 109.5,-9.7 107.5,-9.2 90.2,-19.2 90.7,-17.3 
						105.6,-8.7 103.6,-8.2 91.3,-15.3 91.8,-13.4 101.7,-7.6 99.7,-7.1 92.3,-11.4 92.8,-9.5 97.8,-6.6 95.8,-6.1 93.3,-7.5 
						93.9,-5.6 91.9,-5 94.4,-3.6 94.9,-1.7 90,-4.5 88,-4 95.4,0.3 96,2.2 86.1,-3.5 84.1,-2.9 96.5,4.2 97,6.1 82.2,-2.4 
						80.2,-1.9 97.5,8.1 98,10 78.3,-1.4 76.3,-0.9 98.6,12 99.1,13.9 74.4,-0.3 68.6,-21.8 71.1,-20.4 73,-20.9 68.1,-23.7 
						67.6,-25.7 75,-21.4 76.9,-21.9 67,-27.6 66.5,-29.6 78.9,-22.4 80.8,-23 66,-31.5 65.5,-33.5 82.8,-23.5 84.7,-24 65,-35.4 
						64.4,-37.4 86.7,-24.5 88.6,-25.1 					"/>
					<polygon class="st2" points="119.1,10.7 116.6,9.2 118.6,8.7 					"/>
					<polygon class="st2" points="136.1,4 138.1,3.5 162.8,17.8 160.9,18.3 138.6,5.4 139.1,7.4 158.9,18.8 157,19.3 139.7,9.3 
						140.2,11.3 155,19.9 153.1,20.4 140.7,13.2 141.2,15.2 151.1,20.9 149.2,21.4 141.8,17.1 142.3,19.1 147.2,21.9 145.3,22.5 
						142.8,21 143.3,23 123.8,28.2 118.1,6.8 120.6,8.2 122.5,7.7 117.6,4.8 117,2.9 124.5,7.2 126.4,6.6 116.5,0.9 116,-1 
						128.3,6.1 130.3,5.6 115.5,-3 114.9,-4.9 132.3,5.1 134.2,4.5 114.4,-6.9 113.9,-8.8 					"/>
					<polygon class="st2" points="175.2,-6.4 177.1,-7 201.8,7.3 199.9,7.8 177.6,-5 178.2,-3.1 197.9,8.4 196,8.9 178.7,-1.1 
						179.2,0.8 194,9.4 192.1,9.9 179.7,2.8 180.2,4.7 190.1,10.5 188.2,11 180.8,6.7 181.3,8.6 186.2,11.5 184.3,12 181.8,10.6 
						182.3,12.5 162.8,17.8 157.1,-3.7 159.6,-2.3 161.5,-2.8 156.6,-5.6 156,-7.6 163.5,-3.3 165.4,-3.8 155.5,-9.5 155,-11.5 
						167.4,-4.3 169.3,-4.9 154.5,-13.4 154,-15.4 171.3,-5.4 173.2,-5.9 153.4,-17.3 152.9,-19.3 					"/>
					<polygon class="st2" points="120.2,14.6 112.7,10.3 114.7,9.8 119.6,12.6 					"/>
					<polygon class="st2" points="161.3,11.9 143.9,1.9 145.9,1.4 160.7,10 					"/>
					<polygon class="st2" points="122.2,22.4 104.9,12.4 106.9,11.9 121.7,20.4 					"/>
					<polygon class="st2" points="152.4,-21.2 150.4,-20.7 128.2,-33.6 128.7,-31.6 148.5,-20.2 146.5,-19.7 129.2,-29.7 
						129.7,-27.7 144.6,-19.1 142.6,-18.6 130.3,-25.8 130.8,-23.8 140.7,-18.1 138.7,-17.6 131.3,-21.9 131.8,-19.9 136.8,-17.1 
						134.8,-16.5 132.4,-18 132.9,-16 130.9,-15.5 133.4,-14.1 133.9,-12.1 129,-15 127,-14.4 134.4,-10.2 135,-8.2 125.1,-13.9 
						123.1,-13.4 135.5,-6.3 136,-4.3 121.2,-12.9 119.2,-12.3 136.5,-2.4 137.1,-0.4 117.3,-11.8 115.3,-11.3 137.6,1.5 138.1,3.5 
						113.4,-10.8 107.6,-32.2 110.1,-30.8 112,-31.3 107.1,-34.2 106.6,-36.1 114,-31.8 116,-32.4 106.1,-38.1 105.5,-40 
						117.9,-32.9 119.8,-33.4 105,-42 104.5,-43.9 121.8,-33.9 123.8,-34.5 104,-45.9 103.4,-47.8 125.7,-35 127.7,-35.5 					"/>
					<polygon class="st2" points="103,12.9 122.8,24.3 123.3,26.3 101,13.4 					"/>
					<polygon class="st2" points="121.2,18.5 108.8,11.3 110.8,10.8 120.7,16.5 					"/>
				</g>
			</g>
			<g>
				<g>
					<polygon class="st2" points="66.4,47.8 61.4,44.9 63.4,44.4 65.8,45.8 					"/>
					<polygon class="st2" points="80.5,100.4 81,102.4 56.3,88.1 50.5,66.7 53,68.1 54.9,67.6 50,64.7 49.5,62.8 56.9,67.1 
						58.8,66.5 48.9,60.8 48.4,58.9 60.8,66 62.7,65.5 47.9,56.9 47.4,55 64.7,65 66.6,64.4 46.8,53 46.3,51.1 68.6,63.9 70.5,63.4 
						95.3,77.7 93.3,78.2 71.1,65.3 71.6,67.3 91.4,78.7 89.4,79.2 72.1,69.2 72.6,71.2 87.5,79.8 85.5,80.3 73.1,73.1 73.7,75.1 
						83.6,80.8 81.6,81.3 74.2,77 74.7,79 79.7,81.9 77.7,82.4 75.2,80.9 75.8,82.9 73.8,83.4 76.3,84.8 76.8,86.8 71.9,83.9 
						69.9,84.5 77.3,88.7 77.8,90.7 68,85 66,85.5 78.4,92.6 78.9,94.6 64.1,86 62.1,86.6 79.4,96.5 79.9,98.5 60.2,87.1 58.2,87.6 
											"/>
					<polygon class="st2" points="68.4,55.6 53.6,47 55.6,46.5 67.9,53.6 					"/>
					<polygon class="st2" points="28.4,62.2 18.5,56.4 20.4,55.9 27.9,60.2 					"/>
					<polygon class="st2" points="31,71.9 31.5,73.9 6.8,59.6 8.7,59.1 					"/>
					<polygon class="st2" points="30.5,69.9 10.7,58.5 12.6,58 30,68 					"/>
					<polygon class="st2" points="69.5,59.5 49.7,48.1 51.7,47.6 69,57.5 					"/>
					<polygon class="st2" points="91.6,64 84.2,59.7 86.1,59.2 91.1,62.1 					"/>
					<polygon class="st2" points="92.6,67.9 80.3,60.8 82.2,60.3 92.1,66 					"/>
					<polygon class="st2" points="93.7,71.8 76.4,61.8 78.3,61.3 93.2,69.9 					"/>
					<polygon class="st2" points="27.3,58.3 22.4,55.4 24.3,54.9 26.8,56.3 					"/>
					<polygon class="st2" points="29.4,66 14.6,57.5 16.5,57 28.9,64.1 					"/>
					<polygon class="st2" points="41.5,110.9 42,112.9 17.2,98.6 11.5,77.1 14,78.6 15.9,78 11,75.2 10.5,73.2 17.9,77.5 19.8,77 
						9.9,71.3 9.4,69.3 21.8,76.5 23.7,75.9 8.9,67.4 8.4,65.4 25.7,75.4 27.6,74.9 7.8,63.5 7.3,61.5 29.6,74.4 31.5,73.9 
						56.2,88.1 54.3,88.6 32,75.8 32.6,77.8 52.3,89.2 50.4,89.7 33.1,79.7 33.6,81.7 48.4,90.2 46.5,90.7 34.1,83.6 34.7,85.5 
						44.5,91.3 42.6,91.8 35.2,87.5 35.7,89.4 40.6,92.3 38.7,92.8 36.2,91.4 36.7,93.4 34.8,93.9 37.3,95.3 37.8,97.3 32.8,94.4 
						30.9,94.9 38.3,99.2 38.8,101.2 28.9,95.4 27,96 39.4,103.1 39.9,105.1 25,96.5 23.1,97 40.4,107 40.9,108.9 21.1,97.5 
						19.2,98.1 					"/>
					<polygon class="st2" points="70,61.4 70.5,63.4 45.8,49.1 47.8,48.6 					"/>
					<polygon class="st2" points="90.5,60.1 88.1,58.7 90,58.2 					"/>
					<polygon class="st2" points="67.4,51.7 57.5,46 59.5,45.5 66.9,49.7 					"/>
				</g>
				<g>
					<polygon class="st2" points="158.5,79.5 159,81.5 134.3,67.2 128.5,45.8 131,47.2 132.9,46.7 128,43.8 127.5,41.9 134.9,46.2 
						136.9,45.6 127,39.9 126.4,38 138.8,45.1 140.8,44.6 125.9,36 125.4,34.1 142.7,44.1 144.6,43.5 124.9,32.1 124.3,30.2 
						146.6,43 148.6,42.5 173.3,56.8 171.3,57.3 149.1,44.4 149.6,46.4 169.4,57.8 167.4,58.3 150.1,48.3 150.6,50.3 165.5,58.9 
						163.5,59.4 151.2,52.2 151.7,54.2 161.6,59.9 159.6,60.4 152.2,56.1 152.7,58.1 157.7,60.9 155.7,61.5 153.3,60 153.8,62 
						151.8,62.5 154.3,63.9 154.8,65.9 149.9,63 147.9,63.6 155.3,67.8 155.9,69.8 146,64.1 144,64.6 156.4,71.7 156.9,73.7 
						142.1,65.1 140.1,65.7 157.4,75.6 158,77.6 138.2,66.2 136.2,66.7 					"/>
					<polygon class="st2" points="222.4,6 217.4,3.1 219.4,2.6 221.9,4 					"/>
					<polygon class="st2" points="132.7,61.4 115.4,51.4 117.3,50.9 132.2,59.4 					"/>
					<polygon class="st2" points="210.7,40.5 193.4,30.5 195.4,30 210.2,38.5 					"/>
					<polygon class="st2" points="172.7,54.8 150.5,42 152.5,41.4 172.2,52.9 					"/>
					<polygon class="st2" points="106.4,41.2 96.5,35.5 98.5,35 105.9,39.3 					"/>
					<polygon class="st2" points="129.6,49.7 127.1,48.2 129,47.7 					"/>
					<polygon class="st2" points="144.4,26.9 139.4,24 141.4,23.5 143.9,24.9 					"/>
					<polygon class="st2" points="168.6,39.2 166.1,37.8 168,37.3 					"/>
					<polygon class="st2" points="236.5,58.6 237,60.6 212.3,46.3 206.5,24.9 209,26.3 211,25.8 206,22.9 205.5,21 212.9,25.2 
						214.9,24.7 205,19 204.5,17.1 216.8,24.2 218.8,23.7 203.9,15.1 203.4,13.2 220.7,23.2 222.7,22.6 202.9,11.2 202.4,9.3 
						224.6,22.1 226.6,21.6 251.3,35.9 249.3,36.4 227.1,23.5 227.6,25.5 247.4,36.9 245.4,37.4 228.1,27.4 228.7,29.4 243.5,38 
						241.5,38.5 229.2,31.3 229.7,33.3 239.6,39 237.6,39.5 230.2,35.2 230.8,37.2 235.7,40 233.7,40.6 231.3,39.1 231.8,41.1 
						229.8,41.6 232.3,43 232.8,45 227.9,42.1 225.9,42.7 233.4,46.9 233.9,48.9 224,43.2 222,43.7 234.4,50.8 234.9,52.8 
						220.1,44.2 218.1,44.7 235.5,54.7 236,56.7 216.2,45.3 214.2,45.8 					"/>
					<polygon class="st2" points="107.5,45.1 92.6,36.6 94.6,36.1 106.9,43.2 					"/>
					<polygon class="st2" points="130.6,53.6 123.2,49.3 125.1,48.8 130.1,51.6 					"/>
					<polygon class="st2" points="147.5,38.6 127.7,27.2 129.7,26.7 147,36.6 					"/>
					<polygon class="st2" points="148,40.5 148.6,42.5 123.8,28.2 125.8,27.7 					"/>
					<polygon class="st2" points="169.6,43.1 162.2,38.8 164.2,38.3 169.1,41.2 					"/>
					<polygon class="st2" points="119.5,90 120,91.9 95.3,77.7 89.5,56.2 92,57.6 93.9,57.1 89,54.3 88.5,52.3 95.9,56.6 97.8,56.1 
						87.9,50.4 87.4,48.4 99.8,55.6 101.7,55 86.9,46.5 86.4,44.5 103.7,54.5 105.6,54 85.9,42.6 85.3,40.6 107.6,53.5 109.5,52.9 
						134.3,67.2 132.3,67.7 110.1,54.9 110.6,56.8 130.4,68.3 128.4,68.8 111.1,58.8 111.6,60.7 126.5,69.3 124.5,69.8 112.2,62.7 
						112.7,64.6 122.6,70.4 120.6,70.9 113.2,66.6 113.7,68.5 118.7,71.4 116.7,71.9 114.2,70.5 114.8,72.4 112.8,73 115.3,74.4 
						115.8,76.3 110.9,73.5 108.9,74 116.3,78.3 116.9,80.2 107,74.5 105,75.1 117.4,82.2 117.9,84.1 103.1,75.6 101.1,76.1 
						118.4,86.1 118.9,88 99.2,76.6 97.2,77.1 					"/>
					<polygon class="st2" points="207.6,28.8 205.1,27.3 207.1,26.8 					"/>
					<polygon class="st2" points="207.9,108.1 208.5,110 183.7,95.8 183.7,95.8 178,74.3 180.5,75.7 182.4,75.2 177.5,72.4 
						176.9,70.4 184.4,74.7 186.3,74.2 176.4,68.5 175.9,66.5 188.3,73.7 190.2,73.1 175.4,64.6 174.9,62.6 192.2,72.6 194.1,72.1 
						174.3,60.7 173.8,58.7 196.1,71.6 198,71 222.7,85.3 220.8,85.8 198.5,73 199.1,74.9 218.8,86.4 216.9,86.9 199.6,76.9 
						200.1,78.8 214.9,87.4 213,87.9 200.6,80.8 201.1,82.7 211,88.5 209.1,89 201.7,84.7 202.2,86.6 207.1,89.5 205.2,90 
						202.7,88.6 203.2,90.5 201.3,91.1 203.8,92.5 204.3,94.4 199.3,91.6 197.4,92.1 204.8,96.4 205.3,98.3 195.4,92.6 193.5,93.2 
						205.9,100.3 206.4,102.2 191.5,93.7 189.6,94.2 206.9,104.2 207.4,106.1 187.6,94.7 185.7,95.2 					"/>
					<polygon class="st2" points="131.7,57.5 119.3,50.3 121.2,49.8 131.1,55.5 					"/>
					<polygon class="st2" points="109,51 109.5,52.9 84.8,38.7 86.8,38.1 					"/>
					<polygon class="st2" points="145.4,30.8 135.5,25.1 137.5,24.6 144.9,28.8 					"/>
					<polygon class="st2" points="171.7,50.9 154.4,40.9 156.4,40.4 171.2,49 					"/>
					<polygon class="st2" points="247,97.6 247.5,99.6 222.7,85.3 222.7,85.3 217,63.9 219.5,65.3 221.4,64.8 216.5,61.9 216,60 
						223.4,64.2 225.3,63.7 215.4,58 214.9,56.1 227.3,63.2 229.2,62.7 214.4,54.1 213.9,52.2 231.2,62.2 233.1,61.6 213.3,50.2 
						212.8,48.3 235.1,61.1 237,60.6 261.7,74.9 259.8,75.4 237.5,62.5 238.1,64.5 257.9,75.9 255.9,76.4 238.6,66.4 239.1,68.4 
						253.9,77 252,77.5 239.6,70.3 240.2,72.3 250,78 248.1,78.5 240.7,74.2 241.2,76.2 246.1,79 244.2,79.6 241.7,78.1 242.2,80.1 
						240.3,80.6 242.8,82 243.3,84 238.4,81.1 236.4,81.7 243.8,85.9 244.3,87.9 234.4,82.2 232.5,82.7 244.9,89.8 245.4,91.8 
						230.6,83.2 228.6,83.7 245.9,93.7 246.4,95.7 226.7,84.3 224.7,84.8 					"/>
					<polygon class="st2" points="258.1,61.2 250.7,56.9 252.6,56.4 257.6,59.3 					"/>
					<polygon class="st2" points="208.6,32.7 201.2,28.4 203.2,27.9 208.1,30.7 					"/>
					<polygon class="st2" points="224.5,13.8 209.6,5.2 211.6,4.7 224,11.8 					"/>
					<polygon class="st2" points="133.7,65.3 111.5,52.4 113.4,51.9 133.2,63.3 					"/>
					<polygon class="st2" points="146.5,34.7 131.6,26.1 133.6,25.6 145.9,32.7 					"/>
					<polygon class="st2" points="170.7,47 158.3,39.9 160.3,39.4 170.1,45.1 					"/>
					<polygon class="st2" points="184.4,20.3 174.5,14.6 176.5,14.1 183.9,18.4 					"/>
					<polygon class="st2" points="187,30.1 187.6,32 162.8,17.8 164.8,17.2 					"/>
					<polygon class="st2" points="186.5,28.1 166.7,16.7 168.7,16.2 186,26.2 					"/>
					<polygon class="st2" points="108.5,49 88.7,37.6 90.7,37.1 108,47.1 					"/>
					<polygon class="st2" points="225.5,17.7 205.7,6.3 207.7,5.7 225,15.7 					"/>
					<polygon class="st2" points="257,57.3 254.6,55.9 256.5,55.4 					"/>
					<polygon class="st2" points="247.6,22.2 240.2,17.9 242.2,17.4 247.1,20.3 					"/>
					<polygon class="st2" points="105.4,37.3 100.4,34.5 102.4,34 104.8,35.4 					"/>
					<polygon class="st2" points="209.7,36.6 197.3,29.4 199.3,28.9 209.1,34.6 					"/>
					<polygon class="st2" points="211.8,44.4 189.5,31.5 191.5,31 211.2,42.4 					"/>
					<polygon class="st2" points="240.9,59.5 260.7,71 261.2,72.9 239,60.1 					"/>
					<polygon class="st2" points="259.1,65.1 246.8,58 248.7,57.5 258.6,63.2 					"/>
					<polygon class="st2" points="248.7,26.1 236.3,19 238.3,18.5 248.2,24.2 					"/>
					<polygon class="st2" points="249.7,30 232.4,20 234.4,19.5 249.2,28.1 					"/>
					<polygon class="st2" points="250.8,33.9 228.5,21.1 230.5,20.5 250.2,32 					"/>
					<polygon class="st2" points="260.2,69 242.9,59 244.8,58.5 259.7,67.1 					"/>
					<polygon class="st2" points="183.4,16.4 178.4,13.6 180.4,13.1 182.9,14.5 					"/>
					<polygon class="st2" points="185.5,24.2 170.6,15.7 172.6,15.2 184.9,22.3 					"/>
					<polygon class="st2" points="197.5,69.1 198,71 173.3,56.8 167.5,35.3 170,36.7 172,36.2 167,33.4 166.5,31.4 173.9,35.7 
						175.9,35.2 166,29.5 165.4,27.5 177.8,34.7 179.8,34.1 164.9,25.6 164.4,23.6 181.7,33.6 183.7,33.1 163.9,21.7 163.4,19.7 
						185.6,32.6 187.6,32 212.3,46.3 210.3,46.8 188.1,34 188.6,35.9 208.4,47.4 206.4,47.9 189.1,37.9 189.7,39.8 204.5,48.4 
						202.5,48.9 190.2,41.8 190.7,43.7 200.6,49.5 198.6,50 191.2,45.7 191.7,47.6 196.7,50.5 194.7,51 192.3,49.6 192.8,51.5 
						190.8,52.1 193.3,53.5 193.8,55.4 188.9,52.6 186.9,53.1 194.4,57.4 194.9,59.3 185,53.6 183,54.2 195.4,61.3 195.9,63.2 
						181.1,54.7 179.1,55.2 196.4,65.2 197,67.1 177.2,55.7 175.2,56.2 					"/>
					<polygon class="st2" points="226.1,19.6 226.6,21.6 201.8,7.3 203.8,6.8 					"/>
					<polygon class="st2" points="246.6,18.3 244.1,16.9 246.1,16.4 					"/>
					<polygon class="st2" points="223.4,9.9 213.5,4.2 215.5,3.7 222.9,7.9 					"/>
				</g>
			</g>
		</g>
		<g>
			<g>
				<g>
					<polygon class="st2" points="314.5,37.7 315,39.7 290.3,25.4 284.6,4 287,5.4 289,4.9 284,2 283.5,0.1 290.9,4.3 292.9,3.8 
						283,-1.9 282.5,-3.8 294.8,3.3 296.8,2.8 282,-5.8 281.4,-7.7 298.7,2.3 300.7,1.7 280.9,-9.7 280.4,-11.6 302.6,1.2 
						304.6,0.7 329.3,15 327.4,15.5 305.1,2.6 305.6,4.6 325.4,16 323.5,16.5 306.2,6.5 306.7,8.5 321.5,17 319.6,17.6 307.2,10.4 
						307.7,12.4 317.6,18.1 315.7,18.6 308.3,14.3 308.8,16.3 313.7,19.1 311.8,19.7 309.3,18.2 309.8,20.2 307.9,20.7 310.3,22.1 
						310.9,24.1 305.9,21.2 304,21.8 311.4,26 311.9,28 302,22.3 300.1,22.8 312.4,29.9 313,31.9 298.1,23.3 296.2,23.8 313.5,33.8 
						314,35.8 294.2,24.4 292.3,24.9 					"/>
					<polygon class="st2" points="325,76.7 325.5,78.7 300.8,64.4 300.8,64.4 295,43 297.5,44.4 299.4,43.9 294.5,41 294,39.1 
						301.4,43.3 303.3,42.8 293.4,37.1 292.9,35.2 305.3,42.3 307.2,41.8 292.4,33.2 291.9,31.3 309.2,41.3 311.1,40.7 291.4,29.3 
						290.8,27.4 313.1,40.2 315,39.7 339.8,54 337.8,54.5 315.6,41.6 316.1,43.6 335.9,55 333.9,55.5 316.6,45.5 317.1,47.5 332,56 
						330,56.6 317.7,49.4 318.2,51.4 328.1,57.1 326.1,57.6 318.7,53.3 319.2,55.3 324.2,58.1 322.2,58.7 319.7,57.2 320.3,59.2 
						318.3,59.7 320.8,61.1 321.3,63.1 316.4,60.2 314.4,60.8 321.8,65 322.4,67 312.5,61.3 310.5,61.8 322.9,68.9 323.4,70.9 
						308.6,62.3 306.6,62.8 323.9,72.8 324.4,74.8 304.7,63.4 302.7,63.9 					"/>
					<polygon class="st2" points="426.7,66.2 409.4,56.2 411.3,55.7 426.1,64.3 					"/>
					<polygon class="st2" points="288.7,19.6 271.4,9.6 273.4,9 288.2,17.6 					"/>
					<polygon class="st2" points="297.1,50.8 289.7,46.5 291.6,46 296.6,48.8 					"/>
					<polygon class="st2" points="425.6,62.3 413.3,55.2 415.2,54.6 425.1,60.3 					"/>
					<polygon class="st2" points="338.2,48.1 320.9,38.1 322.8,37.6 337.7,46.2 					"/>
					<polygon class="st2" points="328.8,13 306.5,0.2 308.5,-0.4 328.3,11.1 					"/>
					<polygon class="st2" points="413.4,94.8 414,96.8 389.2,82.5 383.5,61.1 386,62.5 387.9,62 383,59.1 382.4,57.2 389.9,61.4 
						391.8,60.9 381.9,55.2 381.4,53.3 393.8,60.4 395.7,59.9 380.9,51.3 380.4,49.4 397.7,59.3 399.6,58.8 379.8,47.4 379.3,45.5 
						401.6,58.3 403.5,57.8 428.2,72.1 426.3,72.6 404,59.7 404.6,61.7 424.3,73.1 422.4,73.6 405.1,63.6 405.6,65.6 420.4,74.1 
						418.5,74.7 406.1,67.5 406.6,69.5 416.5,75.2 414.6,75.7 407.2,71.4 407.7,73.4 412.6,76.2 410.7,76.8 408.2,75.3 408.7,77.3 
						406.8,77.8 409.3,79.2 409.8,81.2 404.8,78.3 402.9,78.8 410.3,83.1 410.8,85.1 400.9,79.4 399,79.9 411.4,87 411.9,89 
						397,80.4 395.1,80.9 412.4,90.9 412.9,92.9 393.1,81.5 391.2,82 					"/>
					<polygon class="st2" points="285.6,7.9 283.1,6.4 285.1,5.9 					"/>
					<polygon class="st2" points="392.5,16.8 393.1,18.8 368.3,4.5 362.6,-16.9 365.1,-15.5 367,-16 362.1,-18.9 361.5,-20.8 
						369,-16.6 370.9,-17.1 361,-22.8 360.5,-24.7 372.9,-17.6 374.8,-18.1 360,-26.7 359.5,-28.6 376.8,-18.7 378.7,-19.2 
						358.9,-30.6 358.4,-32.5 380.7,-19.7 382.6,-20.2 407.3,-5.9 405.4,-5.4 383.1,-18.3 383.7,-16.3 403.4,-4.9 401.5,-4.4 
						384.2,-14.4 384.7,-12.4 399.5,-3.9 397.6,-3.3 385.2,-10.5 385.7,-8.5 395.6,-2.8 393.7,-2.3 386.3,-6.6 386.8,-4.6 
						391.7,-1.8 389.8,-1.2 387.3,-2.7 387.8,-0.7 385.9,-0.2 388.4,1.2 388.9,3.2 383.9,0.3 382,0.8 389.4,5.1 389.9,7.1 380,1.4 
						378.1,1.9 390.5,9 391,11 376.1,2.4 374.2,2.9 391.5,12.9 392,14.9 372.2,3.5 370.3,4 					"/>
					<polygon class="st2" points="389.2,82.5 387.3,83 365,70.2 365.6,72.1 385.3,83.6 383.4,84.1 366.1,74.1 366.6,76 381.4,84.6 
						379.5,85.1 367.1,78 367.6,79.9 377.5,85.6 375.6,86.2 368.2,81.9 368.7,83.8 373.6,86.7 371.7,87.2 369.2,85.8 369.7,87.7 
						367.8,88.3 370.3,89.7 370.8,91.6 365.8,88.8 363.9,89.3 371.3,93.6 371.8,95.5 361.9,89.8 360,90.3 372.3,97.5 372.9,99.4 
						358,90.9 356.1,91.4 373.4,101.4 373.9,103.3 354.1,91.9 352.2,92.4 374.4,105.3 375,107.2 350.2,93 344.5,71.5 347,72.9 
						348.9,72.4 344,69.6 343.4,67.6 350.9,71.9 352.8,71.4 342.9,65.7 342.4,63.7 354.8,70.8 356.7,70.3 341.9,61.8 341.3,59.8 
						358.7,69.8 360.6,69.3 340.8,57.9 340.3,55.9 362.6,68.8 364.5,68.2 					"/>
					<polygon class="st2" points="337.1,44.2 324.8,37.1 326.7,36.5 336.6,42.3 					"/>
					<polygon class="st2" points="263.5,3.3 248.7,-5.2 250.6,-5.8 263,1.4 					"/>
					<polygon class="st2" points="286.6,11.8 279.2,7.5 281.2,7 286.1,9.8 					"/>
					<polygon class="st2" points="304.1,-1.3 304.6,0.7 279.9,-13.6 281.8,-14.1 					"/>
					<polygon class="st2" points="325.7,1.3 318.2,-3 320.2,-3.5 325.1,-0.6 					"/>
					<polygon class="st2" points="286,87.2 286.5,89.1 261.8,74.9 261.8,74.9 256,53.4 258.5,54.8 260.4,54.3 255.5,51.5 255,49.5 
						262.4,53.8 264.3,53.3 254.4,47.6 253.9,45.6 266.3,52.7 268.2,52.2 253.4,43.7 252.9,41.7 270.2,51.7 272.1,51.2 252.3,39.8 
						251.8,37.8 274.1,50.7 276,50.1 300.8,64.4 298.8,64.9 276.6,52.1 277.1,54 296.9,65.5 294.9,66 277.6,56 278.1,57.9 293,66.5 
						291,67 278.6,59.9 279.2,61.8 289.1,67.5 287.1,68.1 279.7,63.8 280.2,65.7 285.2,68.6 283.2,69.1 280.7,67.7 281.3,69.6 
						279.3,70.2 281.8,71.6 282.3,73.5 277.4,70.7 275.4,71.2 282.8,75.5 283.4,77.4 273.5,71.7 271.5,72.2 283.9,79.4 284.4,81.3 
						269.6,72.8 267.6,73.3 284.9,83.3 285.4,85.2 265.7,73.8 263.7,74.3 					"/>
					<polygon class="st2" points="336.1,40.3 328.7,36 330.6,35.5 335.6,38.4 					"/>
					<polygon class="st2" points="275.5,48.2 276,50.1 251.3,35.9 245.6,14.4 248,15.8 250,15.3 245,12.5 244.5,10.5 251.9,14.8 
						253.9,14.3 244,8.6 243.5,6.6 255.8,13.7 257.8,13.2 242.9,4.7 242.4,2.7 259.7,12.7 261.7,12.2 241.9,0.8 241.4,-1.2 
						263.6,11.7 265.6,11.1 290.3,25.4 288.4,25.9 266.1,13.1 266.6,15 286.4,26.5 284.5,27 267.1,17 267.7,18.9 282.5,27.5 
						280.6,28 268.2,20.9 268.7,22.8 278.6,28.5 276.7,29.1 269.2,24.8 269.8,26.7 274.7,29.6 272.8,30.1 270.3,28.7 270.8,30.6 
						268.9,31.2 271.3,32.6 271.9,34.5 266.9,31.7 265,32.2 272.4,36.5 272.9,38.4 263,32.7 261.1,33.2 273.4,40.4 273.9,42.3 
						259.1,33.8 257.2,34.3 274.5,44.3 275,46.2 255.2,34.8 253.3,35.3 					"/>
					<polygon class="st2" points="335.1,36.4 332.6,35 334.5,34.5 					"/>
					<polygon class="st2" points="364,66.3 364.5,68.2 339.8,54 339.8,54 334,32.5 336.5,33.9 338.5,33.4 333.5,30.6 333,28.6 
						340.4,32.9 342.4,32.4 332.5,26.7 331.9,24.7 344.3,31.8 346.3,31.3 331.4,22.8 330.9,20.8 348.2,30.8 350.1,30.3 330.4,18.9 
						329.8,16.9 352.1,29.8 354.1,29.2 378.8,43.5 376.8,44 354.6,31.2 355.1,33.1 374.9,44.6 372.9,45.1 355.6,35.1 356.1,37 
						371,45.6 369,46.1 356.7,39 357.2,40.9 367.1,46.6 365.1,47.2 357.7,42.9 358.2,44.8 363.2,47.7 361.2,48.2 358.8,46.8 
						359.3,48.7 357.3,49.3 359.8,50.7 360.3,52.6 355.4,49.8 353.4,50.3 360.8,54.6 361.4,56.5 351.5,50.8 349.5,51.3 361.9,58.5 
						362.4,60.4 347.6,51.9 345.6,52.4 362.9,62.4 363.5,64.3 343.7,52.9 341.7,53.4 					"/>
					<polygon class="st2" points="296.1,46.9 293.6,45.4 295.5,44.9 					"/>
					<polygon class="st2" points="287.7,15.7 275.3,8.5 277.3,8 287.2,13.7 					"/>
					<polygon class="st2" points="265.1,9.2 265.6,11.1 240.9,-3.1 242.8,-3.7 					"/>
					<polygon class="st2" points="327.7,9.1 310.4,-0.9 312.4,-1.4 327.2,7.2 					"/>
					<polygon class="st2" points="279.9,49.1 299.7,60.5 300.2,62.5 278,49.6 					"/>
					<polygon class="st2" points="403,55.8 403.5,57.8 378.8,43.5 378.8,43.5 373,22.1 375.5,23.5 377.5,23 372.5,20.1 372,18.2 
						379.4,22.4 381.4,21.9 371.5,16.2 370.9,14.3 383.3,21.4 385.3,20.9 370.4,12.3 369.9,10.4 387.2,20.3 389.2,19.8 369.4,8.4 
						368.9,6.5 391.1,19.3 393.1,18.8 417.8,33.1 415.8,33.6 393.6,20.7 394.1,22.7 413.9,34.1 411.9,34.6 394.6,24.6 395.2,26.6 
						410,35.1 408,35.7 395.7,28.5 396.2,30.5 406.1,36.2 404.1,36.7 396.7,32.4 397.2,34.4 402.2,37.2 400.2,37.8 397.8,36.3 
						398.3,38.3 396.3,38.8 398.8,40.2 399.3,42.2 394.4,39.3 392.4,39.8 399.9,44.1 400.4,46.1 390.5,40.4 388.5,40.9 400.9,48 
						401.4,50 386.6,41.4 384.6,41.9 401.9,51.9 402.5,53.9 382.7,42.5 380.7,43 					"/>
					<polygon class="st2" points="414.1,19.4 406.7,15.1 408.7,14.6 413.6,17.5 					"/>
					<polygon class="st2" points="318.9,38.6 338.7,50.1 339.2,52 317,39.2 					"/>
					<polygon class="st2" points="289.8,23.5 267.5,10.6 269.5,10.1 289.3,21.5 					"/>
					<polygon class="st2" points="326.7,5.2 314.3,-1.9 316.3,-2.5 326.2,3.3 					"/>
					<polygon class="st2" points="407.4,56.7 427.2,68.2 427.7,70.1 405.5,57.3 					"/>
					<polygon class="st2" points="264.5,7.2 244.8,-4.2 246.7,-4.7 264,5.3 					"/>
					<polygon class="st2" points="413.1,15.5 410.6,14.1 412.6,13.6 					"/>
					<polygon class="st2" points="424.6,58.4 417.2,54.1 419.1,53.6 424.1,56.5 					"/>
					<polygon class="st2" points="367.8,2.6 345.6,-10.3 347.5,-10.8 367.3,0.6 					"/>
					<polygon class="st2" points="397,17.7 416.7,29.2 417.3,31.1 395,18.3 					"/>
					<polygon class="st2" points="374.1,26 371.6,24.5 373.5,24 					"/>
					<polygon class="st2" points="375.1,29.9 367.7,25.6 369.6,25.1 374.6,27.9 					"/>
					<polygon class="st2" points="415.2,23.3 402.8,16.2 404.8,15.6 414.6,21.3 					"/>
					<polygon class="st2" points="376.2,33.8 363.8,26.6 365.8,26.1 375.6,31.8 					"/>
					<polygon class="st2" points="299.2,58.6 281.9,48.6 283.8,48 298.7,56.6 					"/>
					<polygon class="st2" points="416.2,27.2 398.9,17.2 400.9,16.7 415.7,25.3 					"/>
					<polygon class="st2" points="377.2,37.7 359.9,27.7 361.9,27.1 376.7,35.7 					"/>
					<polygon class="st2" points="358,28.2 377.7,39.6 378.3,41.6 356,28.7 					"/>
					<polygon class="st2" points="353.5,27.3 354.1,29.2 329.3,15 323.6,-6.5 326.1,-5.1 328,-5.6 323.1,-8.4 322.5,-10.4 330,-6.1 
						331.9,-6.6 322,-12.3 321.5,-14.3 333.9,-7.2 335.8,-7.7 321,-16.2 320.4,-18.2 337.7,-8.2 339.7,-8.7 319.9,-20.1 
						319.4,-22.1 341.6,-9.2 343.6,-9.8 368.3,4.5 366.4,5 344.1,-7.8 344.6,-5.9 364.4,5.6 362.5,6.1 345.2,-3.9 345.7,-2 
						360.5,6.6 358.6,7.1 346.2,0 346.7,1.9 356.6,7.6 354.7,8.2 347.3,3.9 347.8,5.8 352.7,8.7 350.8,9.2 348.3,7.8 348.8,9.7 
						346.9,10.3 349.3,11.7 349.9,13.6 344.9,10.8 343,11.3 350.4,15.6 350.9,17.5 341,11.8 339.1,12.3 351.4,19.5 352,21.4 
						337.1,12.9 335.2,13.4 352.5,23.4 353,25.3 333.2,13.9 331.3,14.4 					"/>
					<polygon class="st2" points="298.1,54.7 285.8,47.5 287.7,47 297.6,52.7 					"/>
				</g>
				<g>
					<polygon class="st2" points="442,45.4 442.5,47.3 417.8,33.1 417.8,33.1 412,11.6 414.5,13 416.5,12.5 411.5,9.6 411,7.7 
						418.4,12 420.4,11.5 410.5,5.7 410,3.8 422.3,10.9 424.3,10.4 409.4,1.8 408.9,-0.1 426.2,9.9 428.2,9.4 408.4,-2 407.9,-4 
						430.1,8.8 432.1,8.3 456.8,22.6 454.8,23.1 432.6,10.3 433.1,12.2 452.9,23.6 450.9,24.2 433.6,14.2 434.2,16.1 449,24.7 
						447,25.2 434.7,18.1 435.2,20 445.1,25.7 443.1,26.3 435.7,22 436.3,23.9 441.2,26.8 439.2,27.3 436.8,25.9 437.3,27.8 
						435.3,28.3 437.8,29.8 438.3,31.7 433.4,28.9 431.4,29.4 438.9,33.7 439.4,35.6 429.5,29.9 427.5,30.4 439.9,37.6 440.4,39.5 
						425.6,31 423.6,31.5 441,41.5 441.5,43.4 421.7,32 419.8,32.5 					"/>
					<polygon class="st2" points="431.6,6.4 432.1,8.3 407.3,-5.9 401.6,-27.4 404.1,-26 406,-26.5 401.1,-29.4 400.5,-31.3 
						408,-27 409.9,-27.5 400,-33.3 399.5,-35.2 411.9,-28.1 413.8,-28.6 399,-37.2 398.5,-39.1 415.8,-29.1 417.7,-29.6 397.9,-41 
						397.4,-43 419.7,-30.2 421.6,-30.7 446.3,-16.4 444.4,-15.9 422.1,-28.7 422.7,-26.8 442.4,-15.4 440.5,-14.8 423.2,-24.8 
						423.7,-22.9 438.5,-14.3 436.6,-13.8 424.2,-20.9 424.8,-19 434.6,-13.3 432.7,-12.7 425.3,-17 425.8,-15.1 430.7,-12.2 
						428.8,-11.7 426.3,-13.1 426.8,-11.2 424.9,-10.7 427.4,-9.2 427.9,-7.3 422.9,-10.1 421,-9.6 428.4,-5.3 428.9,-3.4 419,-9.1 
						417.1,-8.6 429.5,-1.4 430,0.5 415.1,-8 413.2,-7.5 430.5,2.5 431,4.4 411.2,-7 409.3,-6.5 					"/>
				</g>
			</g>
		</g>
	</g>
</g>
</svg>
